# xmcd CD database file
#
# Track frame offsets:
#	150
#	13310
#	25285
#	36225
#	50118
#	63112
#	78195
#	90975
#	101792
#	112615
#	126533
#
# Disc length: 1896 seconds
#
# Revision: 0
# Processed by: cddbd v1.5.1PL2 Copyright (c) Steve Scherf et al.
# Submitted via: CDex 1.51
#
DISCID=8907660b
DTITLE=Gregory Isaacs - Lee Perry Presents Gregory Issacs cd2
DYEAR=1900
DGENRE=Jazz
TTITLE0=Give a hand
TTITLE1=Since the other day
TTITLE2=All I have is love
TTITLE3=Simmer man
TTITLE4=Help us get over
TTITLE5=Hold me tight
TTITLE6=Promise land
TTITLE7=Way of life
TTITLE8=Coming home
TTITLE9=Lonely lover
TTITLE10=Hard road to travel
EXTD=
EXTT0=
EXTT1=
EXTT2=
EXTT3=
EXTT4=
EXTT5=
EXTT6=
EXTT7=
EXTT8=
EXTT9=
EXTT10=
PLAYORDER=
